<svg width="512" height="512" viewBox="0 0 512 512" fill="none" xmlns="http://www.w3.org/2000/svg">
  <!-- Background Circle -->
  <circle cx="256" cy="256" r="256" fill="#0ea5e9"/>
  
  <!-- Dumbbell Icon -->
  <g transform="translate(128, 128)">
    <!-- Left Weight -->
    <rect x="0" y="120" width="40" height="80" rx="20" fill="white"/>
    <rect x="10" y="130" width="20" height="60" rx="10" fill="#0ea5e9"/>
    
    <!-- Bar -->
    <rect x="40" y="140" width="80" height="40" rx="20" fill="white"/>
    <rect x="50" y="150" width="60" height="20" rx="10" fill="#0ea5e9"/>
    
    <!-- Right Weight -->
    <rect x="120" y="120" width="40" height="80" rx="20" fill="white"/>
    <rect x="130" y="130" width="20" height="60" rx="10" fill="#0ea5e9"/>
  </g>
  
  <!-- Heart Icon (top right) -->
  <g transform="translate(380, 80)">
    <path d="M32 16c-8.8 0-16 7.2-16 16 0 8.8 16 32 16 32s16-23.2 16-32c0-8.8-7.2-16-16-16z" fill="white"/>
    <path d="M24 24c-4.4 0-8 3.6-8 8 0 4.4 8 16 8 16s8-11.6 8-16c0-4.4-3.6-8-8-8z" fill="#ef4444"/>
  </g>
  
  <!-- Lightning Bolt (bottom left) -->
  <g transform="translate(80, 380)">
    <path d="M32 0L20 32H32L16 64L32 48H20L32 0z" fill="white"/>
    <path d="M28 8L18 32H28L14 56L28 44H18L28 8z" fill="#f59e0b"/>
  </g>
</svg>
